<svg xmlns="http://www.w3.org/2000/svg" width="121" height="33" fill="none"><path fill="#34313D" fill-rule="evenodd" d="M34.7 25h5.4V13.6c0-.8 0-1.6-.2-2.4a6 6 0 0 0-.8-2.2c-.4-.6-1-1.1-1.7-1.6-.7-.4-1.7-.6-2.9-.6-1.3 0-2.4.3-3.5.9-1.1.6-2 1.4-2.6 2.4V.1h-5.5V25h5.5V14.8c.1-.5.4-1 .7-1.3.2-.4.6-.7 1-1l1-.7 1-.2c.8 0 1.5.3 2 .8.4.6.6 1.4.6 2.6v10ZM16 7.4l.7.5 2.5-4.6a28.4 28.4 0 0 0-4-1.8 18.7 18.7 0 0 0-4.7-.8C9.3.7 8 .8 7 1.2 6 1.5 5 2 4.2 2.7a7.3 7.3 0 0 0-2.6 5.8c0 1 0 1.7.3 2.4a5 5 0 0 0 1.2 1.8c.6.5 1.2 1 2 1.4a20.1 20.1 0 0 0 4 1.4l1.6.5 1.5.5 1.3.8c.2.3.4.7.4 1.1 0 1.2-1 1.8-3 1.8-.9 0-1.8 0-2.7-.3A19 19 0 0 1 3.9 18l-1-.7-2.4 4.9a21.6 21.6 0 0 0 10.3 3c1.2 0 2.3-.2 3.4-.4 1-.3 2-.7 2.9-1.3a6.5 6.5 0 0 0 2.8-5.7 7 7 0 0 0-.6-2.9c-.3-.8-.8-1.4-1.4-2-.7-.5-1.5-1-2.4-1.4a28.9 28.9 0 0 0-4-1.2l-1.3-.4-1.6-.6c-.4-.2-.8-.5-1-.8-.2-.2-.3-.6-.3-1 0-1.3 1-2 3-2a8 8 0 0 1 2.2.3A14.8 14.8 0 0 1 16 7.4Zm36.5 18c-1.5 0-2.9-.3-4-.8a8.5 8.5 0 0 1-4.9-5 10 10 0 0 1 1.8-10 9 9 0 0 1 3-2c1.2-.5 2.6-.8 4-.8 1.6 0 3 .3 4.1.8a8.8 8.8 0 0 1 4.9 5 9.7 9.7 0 0 1-1.8 10c-.9.8-1.9 1.5-3 2-1.2.5-2.6.7-4.1.7Zm-2.9-6a5 5 0 0 1-1.1-3.3c0-.7.1-1.3.3-1.9.2-.6.5-1 .8-1.5a3.7 3.7 0 0 1 2.9-1.3c1.1 0 2 .5 2.8 1.3a5 5 0 0 1 1.1 3.4c0 .7 0 1.3-.3 1.9-.2.6-.5 1-.8 1.5l-1.3 1-1.5.3c-1.2 0-2.1-.5-2.9-1.3Zm26.7-7.6c-1.3 0-2.5.2-3.6.7-1 .4-1.8 1-2.3 1.8V25H65V7.2h5v3.6a7.6 7.6 0 0 1 2.3-2.9c1-.6 2-1 3-1h1v5ZM87.8 25c1-.2 1.8-.5 2.6-.9l-1.1-4.3-1.1.5-1.3.2c-.4 0-.8-.2-1.1-.4-.3-.3-.4-.7-.4-1.3v-7.4H89V7.2h-3.6V1.5h-5.5v5.7h-2.3v4H80v9.4c0 .8.1 1.6.4 2.2A3.8 3.8 0 0 0 83 25a7 7 0 0 0 1.9.2c1 0 2-.1 2.9-.4ZM92.6.2h5.5v18.4c0 1.4.5 2 1.7 2a3.9 3.9 0 0 0 1.8-.4l.7 4c-.7.4-1.4.7-2.3.8l-2.5.3c-1.6 0-2.8-.4-3.6-1.2-.9-.8-1.3-2-1.3-3.6V.2ZM105.4 28a8 8 0 0 1-1.3-.3v4.6a7.5 7.5 0 0 0 2.8.6 7 7 0 0 0 6.9-5l6.8-20.7h-5.1l-3.6 13.1-4.1-13.1H102L109 25c-.2 1.2-.6 2-1 2.4-.3.5-.8.7-1.5.7h-1Z" clip-rule="evenodd"/></svg>